<?xml version="1.0" standalone="no"?><!DOCTYPE svg PUBLIC "-//W3C//DTD SVG 1.1//EN" "http://www.w3.org/Graphics/SVG/1.1/DTD/svg11.dtd"><svg t="1707394281847" class="icon" viewBox="0 0 1024 1024" version="1.1" xmlns="http://www.w3.org/2000/svg" p-id="6063" xmlns:xlink="http://www.w3.org/1999/xlink" width="200" height="200"><path d="M933.5 753.2v-75.6-119.8-27.5c0-5.8-9-5.8-9 0V753.2c0 5.8 9 5.8 9 0z" fill="" p-id="6064"></path><path d="M716.9 685.6c23.8 8.2 47.7 16.4 71.5 24.6 37.8 13 75.5 26 113.3 39 8.7 3 17.3 6 26 8.9 5.5 1.9 7.8-6.8 2.4-8.7-23.8-8.2-47.7-16.4-71.5-24.6-37.8-13-75.5-26-113.3-39-8.7-3-17.3-6-26-8.9-5.5-1.9-7.9 6.8-2.4 8.7z" fill="" p-id="6065"></path><path d="M926.4 742.3c-45.8-64.5-98.3-124.1-155.7-178.5-55.5-52.7-115.5-100.7-178.4-144.2-58.7-40.6-120.1-77.3-183.6-110-55.9-28.8-113.4-54.7-172.4-76.7-46.7-17.4-94.5-32.7-143.3-43.3-4.9-1.1-9.8-2.1-14.7-3-5.7-1.1-8.1 7.6-2.4 8.7 46.8 9.1 92.7 23 137.6 38.9 57.4 20.4 113.5 44.6 168 71.7 62.9 31.3 123.9 66.5 182.4 105.4 62.9 41.8 122.9 88.1 178.8 138.9 57.9 52.7 111.6 110.3 158.5 173 5.9 7.8 11.6 15.7 17.3 23.7 3.4 4.6 11.2 0.1 7.9-4.6z" fill="" p-id="6066"></path></svg>