<svg width="2000" height="1500" viewBox="0 0 2000 1500" fill="none" xmlns="http://www.w3.org/2000/svg">
<g clip-path="url(#clip0_41_2)">
<path d="M1062.39 1011.6H1088.47V1037.69H1062.39V1011.6ZM1166.74 724.649H1192.82V750.735H1166.74V724.649ZM1166.74 698.563H1192.82V724.649H1166.74V698.563ZM1166.74 672.475H1192.82V698.563H1166.74V672.475ZM1140.65 776.821H1166.74V802.91H1140.65V776.821ZM1140.65 750.735H1166.74V776.821H1140.65V750.735ZM1140.65 724.649H1166.74V750.735H1140.65V724.649Z" fill="black"/>
<path d="M1140.65 698.563H1166.74V724.649H1140.65V698.563Z" fill="#FFB62D"/>
<path d="M1140.65 672.475H1166.74V698.563H1140.65V672.475ZM1114.56 933.343H1140.65V959.431H1114.56V933.343ZM1114.56 907.257H1140.65V933.343H1114.56V907.257ZM1114.56 802.91H1140.65V828.996H1114.56V802.91ZM1114.56 776.821H1140.65V802.91H1114.56V776.821Z" fill="black"/>
<path d="M1114.56 750.735H1140.65V776.821H1114.56V750.735ZM1114.56 724.649H1140.65V750.735H1114.56V724.649ZM1114.56 698.563H1140.65V724.649H1114.56V698.563ZM1114.56 672.475H1140.65V698.563H1114.56V672.475Z" fill="#FFB62D"/>
<path d="M1114.56 646.388H1140.65V672.475H1114.56V646.388ZM1088.48 959.431H1114.56V985.517H1088.48V959.431Z" fill="black"/>
<path d="M1088.48 933.343H1114.56V959.431H1088.48V933.343ZM1088.48 907.257H1114.56V933.343H1088.48V907.257Z" fill="#FFB62D"/>
<path d="M1088.48 881.17H1114.56V907.257H1088.48V881.17ZM1088.48 828.996H1114.56V855.082H1088.48V828.996ZM1088.48 802.91H1114.56V828.996H1088.48V802.91Z" fill="black"/>
<path d="M1088.48 776.821H1114.56V802.91H1088.48V776.821ZM1088.48 750.735H1114.56V776.821H1088.48V750.735Z" fill="#FFB62D"/>
<path d="M1088.48 724.649H1114.56V750.735H1088.48V724.649Z" fill="#FECF48"/>
<path d="M1088.48 698.563H1114.56V724.649H1088.48V698.563ZM1088.48 672.475H1114.56V698.563H1088.48V672.475Z" fill="#FFB62D"/>
<path d="M1088.47 646.388H1114.56V672.475H1088.47V646.388ZM1062.39 985.517H1088.47V1011.6H1062.39V985.517Z" fill="black"/>
<path d="M1062.39 959.431H1088.47V985.517H1062.39V959.431ZM1062.39 933.343H1088.47V959.431H1062.39V933.343ZM1062.39 907.257H1088.47V933.343H1062.39V907.257ZM1062.39 881.17H1088.47V907.257H1062.39V881.17Z" fill="#FFB62D"/>
<path d="M1062.39 855.082H1088.47V881.17H1062.39V855.082ZM1062.39 828.996H1088.47V855.082H1062.39V828.996Z" fill="black"/>
<path d="M1062.39 802.91H1088.47V828.996H1062.39V802.91ZM1062.39 776.821H1088.47V802.91H1062.39V776.821ZM1062.39 750.735H1088.47V776.821H1062.39V750.735Z" fill="#FFB62D"/>
<path d="M1062.39 724.649H1088.47V750.735H1062.39V724.649Z" fill="#FECF48"/>
<path d="M1062.39 698.563H1088.47V724.649H1062.39V698.563ZM1062.39 672.475H1088.47V698.563H1062.39V672.475Z" fill="#FFB62D"/>
<path d="M1062.39 646.388H1088.48V672.475H1062.39V646.388ZM1036.3 1011.6H1062.39V1037.69H1036.3V1011.6Z" fill="black"/>
<path d="M1036.3 985.517H1062.39V1011.6H1036.3V985.517ZM1036.3 959.431H1062.39V985.517H1036.3V959.431Z" fill="#FFB62D"/>
<path d="M1036.3 933.343H1062.39V959.431H1036.3V933.343Z" fill="#FECF48"/>
<path d="M1036.3 907.257H1062.39V933.343H1036.3V907.257ZM1036.3 881.17H1062.39V907.257H1036.3V881.17ZM1036.3 855.082H1062.39V881.17H1036.3V855.082ZM1036.3 828.996H1062.39V855.082H1036.3V828.996ZM1036.3 802.91H1062.39V828.996H1036.3V802.91ZM1036.3 776.821H1062.39V802.91H1036.3V776.821Z" fill="#FFB62D"/>
<path d="M1036.3 750.735H1062.39V776.821H1036.3V750.735ZM1036.3 724.649H1062.39V750.735H1036.3V724.649ZM1036.3 698.563H1062.39V724.649H1036.3V698.563Z" fill="#FECF48"/>
<path d="M1036.3 672.475H1062.39V698.563H1036.3V672.475ZM1036.3 646.388H1062.39V672.475H1036.3V646.388Z" fill="#FFB62D"/>
<path d="M1036.3 620.302H1062.39V646.388H1036.3V620.302ZM1010.21 1011.6H1036.3V1037.69H1010.21V1011.6Z" fill="black"/>
<path d="M1010.21 985.517H1036.3V1011.6H1010.21V985.517ZM1010.21 959.431H1036.3V985.517H1010.21V959.431ZM1010.21 933.343H1036.3V959.431H1010.21V933.343Z" fill="#FFB62D"/>
<path d="M1010.21 907.257H1036.3V933.343H1010.21V907.257ZM1010.21 881.17H1036.3V907.257H1010.21V881.17ZM1010.21 855.082H1036.3V881.17H1010.21V855.082ZM1010.21 828.996H1036.3V855.082H1010.21V828.996Z" fill="#FECF48"/>
<path d="M1010.21 802.91H1036.3V828.996H1010.21V802.91Z" fill="#FFB62D"/>
<path d="M1010.21 776.821H1036.3V802.91H1010.21V776.821ZM1010.21 750.735H1036.3V776.821H1010.21V750.735ZM1010.21 724.649H1036.3V750.735H1010.21V724.649ZM1010.21 698.563H1036.3V724.649H1010.21V698.563Z" fill="#FECF48"/>
<path d="M1010.21 672.475H1036.3V698.563H1010.21V672.475ZM1010.21 646.388H1036.3V672.475H1010.21V646.388Z" fill="#FFB62D"/>
<path d="M1010.22 620.302H1036.3V646.388H1010.22V620.302ZM984.129 985.517H1010.22V1011.6H984.129V985.517Z" fill="black"/>
<path d="M984.129 959.431H1010.22V985.517H984.129V959.431ZM984.129 933.343H1010.22V959.431H984.129V933.343ZM984.129 907.257H1010.22V933.343H984.129V907.257Z" fill="#FFB62D"/>
<path d="M984.129 881.17H1010.22V907.257H984.129V881.17ZM984.129 855.082H1010.22V881.17H984.129V855.082ZM984.129 828.996H1010.22V855.082H984.129V828.996ZM984.129 802.91H1010.22V828.996H984.129V802.91ZM984.129 776.821H1010.22V802.91H984.129V776.821ZM984.129 750.735H1010.22V776.821H984.129V750.735ZM984.129 724.649H1010.22V750.735H984.129V724.649ZM984.129 698.563H1010.22V724.649H984.129V698.563ZM984.129 672.475H1010.22V698.563H984.129V672.475Z" fill="#FECF48"/>
<path d="M984.129 646.388H1010.22V672.475H984.129V646.388ZM984.129 620.302H1010.22V646.388H984.129V620.302Z" fill="#FFB62D"/>
<path d="M984.129 594.214H1010.22V620.302H984.129V594.214ZM984.129 568.128H1010.22V594.214H984.129V568.128ZM958.043 985.517H984.129V1011.6H958.043V985.517Z" fill="black"/>
<path d="M958.043 959.431H984.129V985.517H958.043V959.431ZM958.043 933.343H984.129V959.431H958.043V933.343ZM958.043 907.257H984.129V933.343H958.043V907.257Z" fill="#FFB62D"/>
<path d="M958.043 881.17H984.129V907.257H958.043V881.17ZM958.043 855.082H984.129V881.17H958.043V855.082ZM958.043 828.996H984.129V855.082H958.043V828.996ZM958.043 802.91H984.129V828.996H958.043V802.91ZM958.043 776.821H984.129V802.91H958.043V776.821ZM958.043 750.735H984.129V776.821H958.043V750.735ZM958.043 724.649H984.129V750.735H958.043V724.649Z" fill="#FECF48"/>
<path d="M958.043 698.563H984.129V724.649H958.043V698.563Z" fill="white"/>
<path d="M958.043 672.475H984.129V698.563H958.043V672.475ZM958.043 646.388H984.129V672.475H958.043V646.388Z" fill="#FECF48"/>
<path d="M958.043 620.302H984.129V646.388H958.043V620.302ZM958.043 594.214H984.129V620.302H958.043V594.214ZM958.043 568.128H984.129V594.214H958.043V568.128Z" fill="#FFB62D"/>
<path d="M958.043 542.041H984.13V568.128H958.043V542.041ZM958.043 515.953H984.13V542.041H958.043V515.953ZM931.955 985.517H958.043V1011.6H931.955V985.517ZM931.955 959.431H958.043V985.517H931.955V959.431Z" fill="black"/>
<path d="M931.955 933.343H958.043V959.431H931.955V933.343ZM931.955 907.257H958.043V933.343H931.955V907.257ZM931.955 881.17H958.043V907.257H931.955V881.17Z" fill="#FFB62D"/>
<path d="M931.955 855.082H958.043V881.17H931.955V855.082ZM931.955 828.996H958.043V855.082H931.955V828.996ZM931.955 802.91H958.043V828.996H931.955V802.91ZM931.955 776.821H958.043V802.91H931.955V776.821ZM931.955 750.735H958.043V776.821H931.955V750.735ZM931.955 724.649H958.043V750.735H931.955V724.649ZM931.955 698.563H958.043V724.649H931.955V698.563Z" fill="#FECF48"/>
<path d="M931.955 672.475H958.043V698.563H931.955V672.475Z" fill="white"/>
<path d="M931.955 646.388H958.043V672.475H931.955V646.388ZM931.955 620.302H958.043V646.388H931.955V620.302Z" fill="#FECF48"/>
<path d="M931.955 594.214H958.043V620.302H931.955V594.214ZM931.955 568.128H958.043V594.214H931.955V568.128Z" fill="#FFB62D"/>
<path d="M931.955 542.041H958.043V568.128H931.955V542.041Z" fill="#FFB62D"/>
<path d="M931.955 515.953H958.044V542.041H931.955V515.953ZM931.955 489.867H958.044V515.953H931.955V489.867ZM905.869 959.431H931.955V985.517H905.869V959.431Z" fill="black"/>
<path d="M905.869 933.343H931.955V959.431H905.869V933.343ZM905.869 907.257H931.955V933.343H905.869V907.257ZM905.869 881.17H931.955V907.257H905.869V881.17ZM905.869 855.082H931.955V881.17H905.869V855.082Z" fill="#FFB62D"/>
<path d="M905.869 828.996H931.955V855.082H905.869V828.996ZM905.869 802.91H931.955V828.996H905.869V802.91ZM905.869 776.821H931.955V802.91H905.869V776.821ZM905.869 750.735H931.955V776.821H905.869V750.735ZM905.869 724.649H931.955V750.735H905.869V724.649ZM905.869 698.563H931.955V724.649H905.869V698.563ZM905.869 672.475H931.955V698.563H905.869V672.475ZM905.869 646.388H931.955V672.475H905.869V646.388ZM905.869 620.302H931.955V646.388H905.869V620.302ZM905.869 594.214H931.955V620.302H905.869V594.214Z" fill="#FECF48"/>
<path d="M905.869 568.128H931.955V594.214H905.869V568.128Z" fill="#FFB62D"/>
<path d="M905.869 542.041H931.955V568.128H905.869V542.041ZM905.869 515.953H931.955V542.041H905.869V515.953Z" fill="#FFB62D"/>
<path d="M905.867 489.867H931.954V515.953H905.867V489.867ZM879.781 959.431H905.867V985.517H879.781V959.431Z" fill="black"/>
<path d="M879.781 933.343H905.867V959.431H879.781V933.343ZM879.781 907.257H905.867V933.343H879.781V907.257ZM879.781 881.17H905.867V907.257H879.781V881.17Z" fill="#FFB62D"/>
<path d="M879.781 855.082H905.867V881.17H879.781V855.082ZM879.781 828.996H905.867V855.082H879.781V828.996ZM879.781 802.91H905.867V828.996H879.781V802.91ZM879.781 776.821H905.867V802.91H879.781V776.821ZM879.781 750.735H905.867V776.821H879.781V750.735ZM879.781 724.649H905.867V750.735H879.781V724.649ZM879.781 698.563H905.867V724.649H879.781V698.563ZM879.781 672.475H905.867V698.563H879.781V672.475ZM879.781 646.388H905.867V672.475H879.781V646.388ZM879.781 620.302H905.867V646.388H879.781V620.302Z" fill="#FECF48"/>
<path d="M879.781 594.214H905.867V620.302H879.781V594.214ZM879.781 568.128H905.867V594.214H879.781V568.128Z" fill="#FFB62D"/>
<path d="M879.781 542.041H905.867V568.128H879.781V542.041Z" fill="#FFB62D"/>
<path d="M879.782 515.953H905.868V542.041H879.782V515.953ZM879.782 489.867H905.868V515.953H879.782V489.867ZM853.695 985.517H879.782V1011.6H853.695V985.517ZM853.695 959.431H879.782V985.517H853.695V959.431Z" fill="black"/>
<path d="M853.695 933.343H879.782V959.431H853.695V933.343ZM853.695 907.257H879.782V933.343H853.695V907.257ZM853.695 881.17H879.782V907.257H853.695V881.17Z" fill="#FFB62D"/>
<path d="M853.695 855.082H879.782V881.17H853.695V855.082ZM853.695 828.996H879.782V855.082H853.695V828.996ZM853.695 802.91H879.782V828.996H853.695V802.91ZM853.695 776.821H879.782V802.91H853.695V776.821ZM853.695 750.735H879.782V776.821H853.695V750.735ZM853.695 724.649H879.782V750.735H853.695V724.649ZM853.695 698.563H879.782V724.649H853.695V698.563ZM853.695 672.475H879.782V698.563H853.695V672.475ZM853.695 646.388H879.782V672.475H853.695V646.388Z" fill="#FECF48"/>
<path d="M853.695 620.302H879.782V646.388H853.695V620.302ZM853.695 594.214H879.782V620.302H853.695V594.214ZM853.695 568.128H879.782V594.214H853.695V568.128Z" fill="#FFB62D"/>
<path d="M853.696 542.041H879.782V568.128H853.696V542.041ZM853.696 515.953H879.782V542.041H853.696V515.953ZM827.607 985.517H853.696V1011.6H827.607V985.517Z" fill="black"/>
<path d="M827.607 959.431H853.696V985.517H827.607V959.431ZM827.607 933.343H853.696V959.431H827.607V933.343ZM827.607 907.257H853.696V933.343H827.607V907.257Z" fill="#FFB62D"/>
<path d="M827.607 881.17H853.696V907.257H827.607V881.17Z" fill="#FECF48"/>
<path d="M827.607 855.082H853.696V881.17H827.607V855.082Z" fill="white"/>
<path d="M827.607 828.996H853.696V855.082H827.607V828.996ZM827.607 802.91H853.696V828.996H827.607V802.91ZM827.607 776.821H853.696V802.91H827.607V776.821ZM827.607 750.735H853.696V776.821H827.607V750.735ZM827.607 724.649H853.696V750.735H827.607V724.649ZM827.607 698.563H853.696V724.649H827.607V698.563ZM827.607 672.475H853.696V698.563H827.607V672.475Z" fill="#FECF48"/>
<path d="M827.607 646.388H853.696V672.475H827.607V646.388ZM827.607 620.302H853.696V646.388H827.607V620.302Z" fill="#FFB62D"/>
<path d="M827.608 594.214H853.696V620.302H827.608V594.214ZM827.608 568.128H853.696V594.214H827.608V568.128ZM801.521 985.517H827.608V1011.6H801.521V985.517Z" fill="black"/>
<path d="M801.521 959.431H827.608V985.517H801.521V959.431ZM801.521 933.343H827.608V959.431H801.521V933.343Z" fill="#FFB62D"/>
<path d="M801.521 907.257H827.608V933.343H801.521V907.257Z" fill="#FECF48"/>
<path d="M801.521 881.17H827.608V907.257H801.521V881.17Z" fill="white"/>
<path d="M801.521 855.082H827.608V881.17H801.521V855.082ZM801.521 828.996H827.608V855.082H801.521V828.996Z" fill="#FECF48"/>
<path d="M801.521 802.91H827.608V828.996H801.521V802.91Z" fill="#FFB62D"/>
<path d="M801.521 776.821H827.608V802.91H801.521V776.821ZM801.521 750.735H827.608V776.821H801.521V750.735ZM801.521 724.649H827.608V750.735H801.521V724.649ZM801.521 698.563H827.608V724.649H801.521V698.563ZM801.521 672.475H827.608V698.563H801.521V672.475Z" fill="#FECF48"/>
<path d="M801.521 646.388H827.608V672.475H801.521V646.388Z" fill="#FFB62D"/>
<path d="M801.522 620.302H827.608V646.388H801.522V620.302ZM775.436 1011.6H801.522V1037.69H775.436V1011.6Z" fill="black"/>
<path d="M775.436 985.517H801.522V1011.6H775.436V985.517ZM775.436 959.431H801.522V985.517H775.436V959.431Z" fill="#FFB62D"/>
<path d="M775.436 933.343H801.522V959.431H775.436V933.343Z" fill="#FECF48"/>
<path d="M775.436 907.257H801.522V933.343H775.436V907.257ZM775.436 881.17H801.522V907.257H775.436V881.17ZM775.436 855.082H801.522V881.17H775.436V855.082ZM775.436 828.996H801.522V855.082H775.436V828.996ZM775.436 802.91H801.522V828.996H775.436V802.91ZM775.436 776.821H801.522V802.91H775.436V776.821Z" fill="#FFB62D"/>
<path d="M775.436 750.735H801.522V776.821H775.436V750.735ZM775.436 724.649H801.522V750.735H775.436V724.649ZM775.436 698.563H801.522V724.649H775.436V698.563Z" fill="#FECF48"/>
<path d="M775.436 672.475H801.522V698.563H775.436V672.475ZM775.436 646.388H801.522V672.475H775.436V646.388Z" fill="#FFB62D"/>
<path d="M775.436 620.302H801.522V646.388H775.436V620.302ZM749.348 1011.6H775.436V1037.69H749.348V1011.6ZM749.348 985.517H775.436V1011.6H749.348V985.517Z" fill="black"/>
<path d="M749.348 959.431H775.436V985.517H749.348V959.431ZM749.348 933.343H775.436V959.431H749.348V933.343ZM749.348 907.257H775.436V933.343H749.348V907.257ZM749.348 881.17H775.436V907.257H749.348V881.17ZM749.348 855.082H775.436V881.17H749.348V855.082Z" fill="#FFB62D"/>
<path d="M749.348 828.996H775.436V855.082H749.348V828.996ZM749.348 802.91H775.436V828.996H749.348V802.91Z" fill="black"/>
<path d="M749.348 776.821H775.436V802.91H749.348V776.821ZM749.348 750.735H775.436V776.821H749.348V750.735Z" fill="#FFB62D"/>
<path d="M749.348 724.649H775.436V750.735H749.348V724.649Z" fill="#FECF48"/>
<path d="M749.348 698.563H775.436V724.649H749.348V698.563ZM749.348 672.475H775.436V698.563H749.348V672.475Z" fill="#FFB62D"/>
<path d="M749.346 646.388H775.434V672.475H749.346V646.388ZM723.26 959.431H749.346V985.517H723.26V959.431Z" fill="black"/>
<path d="M723.26 933.343H749.346V959.431H723.26V933.343ZM723.26 907.257H749.346V933.343H723.26V907.257Z" fill="#FFB62D"/>
<path d="M723.26 881.17H749.346V907.257H723.26V881.17ZM723.26 855.082H749.346V881.17H723.26V855.082ZM723.26 802.91H749.346V828.996H723.26V802.91ZM723.26 776.821H749.346V802.91H723.26V776.821Z" fill="black"/>
<path d="M723.26 750.735H749.346V776.821H723.26V750.735Z" fill="#FFB62D"/>
<path d="M723.26 724.649H749.346V750.735H723.26V724.649Z" fill="#FECF48"/>
<path d="M723.26 698.563H749.346V724.649H723.26V698.563ZM723.26 672.475H749.346V698.563H723.26V672.475Z" fill="#FFB62D"/>
<path d="M723.26 646.388H749.346V672.475H723.26V646.388ZM697.174 933.343H723.26V959.431H697.174V933.343ZM697.174 907.257H723.26V933.343H697.174V907.257ZM697.174 776.821H723.26V802.91H697.174V776.821Z" fill="black"/>
<path d="M697.174 750.735H723.26V776.821H697.174V750.735ZM697.174 724.649H723.26V750.735H697.174V724.649ZM697.174 698.563H723.26V724.649H697.174V698.563ZM697.174 672.475H723.26V698.563H697.174V672.475Z" fill="#FFB62D"/>
<path d="M697.174 646.388H723.26V672.475H697.174V646.388ZM671.086 750.735H697.174V776.821H671.086V750.735ZM671.086 724.649H697.174V750.735H671.086V724.649Z" fill="black"/>
<path d="M671.086 698.563H697.174V724.649H671.086V698.563ZM671.086 672.475H697.174V698.563H671.086V672.475Z" fill="#FFB62D"/>
<path d="M671.086 646.388H697.174V672.475H671.086V646.388ZM645 724.649H671.086V750.735H645V724.649ZM645 698.563H671.086V724.649H645V698.563ZM645 672.475H671.086V698.563H645V672.475Z" fill="black"/>
</g>
<g clip-path="url(#clip1_41_2)">
<path d="M1307.17 1050.1H1315.34V1058.27H1307.17V1050.1ZM1339.83 960.288H1348V968.453H1339.83V960.288ZM1339.83 952.124H1348V960.288H1339.83V952.124ZM1339.83 943.958H1348V952.124H1339.83V943.958ZM1331.67 976.618H1339.83V984.783H1331.67V976.618ZM1331.67 968.453H1339.83V976.618H1331.67V968.453ZM1331.67 960.288H1339.83V968.453H1331.67V960.288Z" fill="black"/>
<path d="M1331.67 952.124H1339.83V960.288H1331.67V952.124Z" fill="#FFB62D"/>
<path d="M1331.67 943.958H1339.83V952.124H1331.67V943.958ZM1323.5 1025.61H1331.67V1033.77H1323.5V1025.61ZM1323.5 1017.44H1331.67V1025.61H1323.5V1017.44ZM1323.5 984.783H1331.67V992.948H1323.5V984.783ZM1323.5 976.618H1331.67V984.783H1323.5V976.618Z" fill="black"/>
<path d="M1323.5 968.453H1331.67V976.618H1323.5V968.453ZM1323.5 960.288H1331.67V968.453H1323.5V960.288ZM1323.5 952.124H1331.67V960.288H1323.5V952.124ZM1323.5 943.958H1331.67V952.124H1323.5V943.958Z" fill="#FFB62D"/>
<path d="M1323.5 935.794H1331.67V943.958H1323.5V935.794ZM1315.34 1033.77H1323.5V1041.94H1315.34V1033.77Z" fill="black"/>
<path d="M1315.34 1025.61H1323.5V1033.77H1315.34V1025.61ZM1315.34 1017.44H1323.5V1025.61H1315.34V1017.44Z" fill="#FFB62D"/>
<path d="M1315.34 1009.28H1323.5V1017.44H1315.34V1009.28ZM1315.34 992.948H1323.5V1001.11H1315.34V992.948ZM1315.34 984.783H1323.5V992.948H1315.34V984.783Z" fill="black"/>
<path d="M1315.34 976.618H1323.5V984.783H1315.34V976.618ZM1315.34 968.453H1323.5V976.618H1315.34V968.453Z" fill="#FFB62D"/>
<path d="M1315.34 960.288H1323.5V968.453H1315.34V960.288Z" fill="#FECF48"/>
<path d="M1315.34 952.124H1323.5V960.288H1315.34V952.124ZM1315.34 943.958H1323.5V952.124H1315.34V943.958Z" fill="#FFB62D"/>
<path d="M1315.34 935.794H1323.5V943.958H1315.34V935.794ZM1307.17 1041.94H1315.34V1050.1H1307.17V1041.94Z" fill="black"/>
<path d="M1307.17 1033.77H1315.34V1041.94H1307.17V1033.77ZM1307.17 1025.61H1315.34V1033.77H1307.17V1025.61ZM1307.17 1017.44H1315.34V1025.61H1307.17V1017.44ZM1307.17 1009.28H1315.34V1017.44H1307.17V1009.28Z" fill="#FFB62D"/>
<path d="M1307.17 1001.11H1315.34V1009.28H1307.17V1001.11ZM1307.17 992.948H1315.34V1001.11H1307.17V992.948Z" fill="black"/>
<path d="M1307.17 984.783H1315.34V992.948H1307.17V984.783ZM1307.17 976.618H1315.34V984.783H1307.17V976.618ZM1307.17 968.453H1315.34V976.618H1307.17V968.453Z" fill="#FFB62D"/>
<path d="M1307.17 960.288H1315.34V968.453H1307.17V960.288Z" fill="#FECF48"/>
<path d="M1307.17 952.124H1315.34V960.288H1307.17V952.124ZM1307.17 943.958H1315.34V952.124H1307.17V943.958Z" fill="#FFB62D"/>
<path d="M1307.17 935.794H1315.34V943.958H1307.17V935.794ZM1299.01 1050.1H1307.17V1058.27H1299.01V1050.1Z" fill="black"/>
<path d="M1299.01 1041.94H1307.17V1050.1H1299.01V1041.94ZM1299.01 1033.77H1307.17V1041.94H1299.01V1033.77Z" fill="#FFB62D"/>
<path d="M1299.01 1025.61H1307.17V1033.77H1299.01V1025.61Z" fill="#FECF48"/>
<path d="M1299.01 1017.44H1307.17V1025.61H1299.01V1017.44ZM1299.01 1009.28H1307.17V1017.44H1299.01V1009.28ZM1299.01 1001.11H1307.17V1009.28H1299.01V1001.11ZM1299.01 992.948H1307.17V1001.11H1299.01V992.948ZM1299.01 984.783H1307.17V992.948H1299.01V984.783ZM1299.01 976.618H1307.17V984.783H1299.01V976.618Z" fill="#FFB62D"/>
<path d="M1299.01 968.453H1307.17V976.618H1299.01V968.453ZM1299.01 960.288H1307.17V968.453H1299.01V960.288ZM1299.01 952.124H1307.17V960.288H1299.01V952.124Z" fill="#FECF48"/>
<path d="M1299.01 943.958H1307.17V952.124H1299.01V943.958ZM1299.01 935.794H1307.17V943.958H1299.01V935.794Z" fill="#FFB62D"/>
<path d="M1299.01 927.629H1307.17V935.794H1299.01V927.629ZM1290.84 1050.1H1299.01V1058.27H1290.84V1050.1Z" fill="black"/>
<path d="M1290.84 1041.94H1299.01V1050.1H1290.84V1041.94ZM1290.84 1033.77H1299.01V1041.94H1290.84V1033.77ZM1290.84 1025.61H1299.01V1033.77H1290.84V1025.61Z" fill="#FFB62D"/>
<path d="M1290.84 1017.44H1299.01V1025.61H1290.84V1017.44ZM1290.84 1009.28H1299.01V1017.44H1290.84V1009.28ZM1290.84 1001.11H1299.01V1009.28H1290.84V1001.11ZM1290.84 992.948H1299.01V1001.11H1290.84V992.948Z" fill="#FECF48"/>
<path d="M1290.84 984.783H1299.01V992.948H1290.84V984.783Z" fill="#FFB62D"/>
<path d="M1290.84 976.618H1299.01V984.783H1290.84V976.618ZM1290.84 968.453H1299.01V976.618H1290.84V968.453ZM1290.84 960.288H1299.01V968.453H1290.84V960.288ZM1290.84 952.124H1299.01V960.288H1290.84V952.124Z" fill="#FECF48"/>
<path d="M1290.84 943.958H1299.01V952.124H1290.84V943.958ZM1290.84 935.794H1299.01V943.958H1290.84V935.794Z" fill="#FFB62D"/>
<path d="M1290.84 927.629H1299.01V935.794H1290.84V927.629ZM1282.68 1041.94H1290.84V1050.1H1282.68V1041.94Z" fill="black"/>
<path d="M1282.68 1033.77H1290.84V1041.94H1282.68V1033.77ZM1282.68 1025.61H1290.84V1033.77H1282.68V1025.61ZM1282.68 1017.44H1290.84V1025.61H1282.68V1017.44Z" fill="#FFB62D"/>
<path d="M1282.68 1009.28H1290.84V1017.44H1282.68V1009.28ZM1282.68 1001.11H1290.84V1009.28H1282.68V1001.11ZM1282.68 992.948H1290.84V1001.11H1282.68V992.948ZM1282.68 984.783H1290.84V992.948H1282.68V984.783ZM1282.68 976.618H1290.84V984.783H1282.68V976.618ZM1282.68 968.453H1290.84V976.618H1282.68V968.453ZM1282.68 960.288H1290.84V968.453H1282.68V960.288ZM1282.68 952.124H1290.84V960.288H1282.68V952.124ZM1282.68 943.958H1290.84V952.124H1282.68V943.958Z" fill="#FECF48"/>
<path d="M1282.68 935.794H1290.84V943.958H1282.68V935.794ZM1282.68 927.629H1290.84V935.794H1282.68V927.629Z" fill="#FFB62D"/>
<path d="M1282.68 919.464H1290.84V927.629H1282.68V919.464ZM1282.68 911.299H1290.84V919.464H1282.68V911.299ZM1274.51 1041.94H1282.68V1050.1H1274.51V1041.94Z" fill="black"/>
<path d="M1274.51 1033.77H1282.68V1041.94H1274.51V1033.77ZM1274.51 1025.61H1282.68V1033.77H1274.51V1025.61ZM1274.51 1017.44H1282.68V1025.61H1274.51V1017.44Z" fill="#FFB62D"/>
<path d="M1274.51 1009.28H1282.68V1017.44H1274.51V1009.28ZM1274.51 1001.11H1282.68V1009.28H1274.51V1001.11ZM1274.51 992.948H1282.68V1001.11H1274.51V992.948ZM1274.51 984.783H1282.68V992.948H1274.51V984.783ZM1274.51 976.618H1282.68V984.783H1274.51V976.618ZM1274.51 968.453H1282.68V976.618H1274.51V968.453ZM1274.51 960.288H1282.68V968.453H1274.51V960.288Z" fill="#FECF48"/>
<path d="M1274.51 952.124H1282.68V960.288H1274.51V952.124Z" fill="white"/>
<path d="M1274.51 943.958H1282.68V952.124H1274.51V943.958ZM1274.51 935.794H1282.68V943.958H1274.51V935.794Z" fill="#FECF48"/>
<path d="M1274.51 927.629H1282.68V935.794H1274.51V927.629ZM1274.51 919.464H1282.68V927.629H1274.51V919.464ZM1274.51 911.299H1282.68V919.464H1274.51V911.299Z" fill="#FFB62D"/>
<path d="M1274.51 903.134H1282.68V911.299H1274.51V903.134ZM1274.51 894.969H1282.68V903.134H1274.51V894.969ZM1266.35 1041.94H1274.51V1050.1H1266.35V1041.94ZM1266.35 1033.77H1274.51V1041.94H1266.35V1033.77Z" fill="black"/>
<path d="M1266.35 1025.61H1274.51V1033.77H1266.35V1025.61ZM1266.35 1017.44H1274.51V1025.61H1266.35V1017.44ZM1266.35 1009.28H1274.51V1017.44H1266.35V1009.28Z" fill="#FFB62D"/>
<path d="M1266.35 1001.11H1274.51V1009.28H1266.35V1001.11ZM1266.35 992.948H1274.51V1001.11H1266.35V992.948ZM1266.35 984.783H1274.51V992.948H1266.35V984.783ZM1266.35 976.618H1274.51V984.783H1266.35V976.618ZM1266.35 968.453H1274.51V976.618H1266.35V968.453ZM1266.35 960.288H1274.51V968.453H1266.35V960.288ZM1266.35 952.124H1274.51V960.288H1266.35V952.124Z" fill="#FECF48"/>
<path d="M1266.35 943.958H1274.51V952.124H1266.35V943.958Z" fill="white"/>
<path d="M1266.35 935.794H1274.51V943.958H1266.35V935.794ZM1266.35 927.629H1274.51V935.794H1266.35V927.629Z" fill="#FECF48"/>
<path d="M1266.35 919.464H1274.51V927.629H1266.35V919.464ZM1266.35 911.299H1274.51V919.464H1266.35V911.299Z" fill="#FFB62D"/>
<path d="M1266.35 903.134H1274.51V911.299H1266.35V903.134Z" fill="#FFB62D"/>
<path d="M1266.35 894.969H1274.51V903.134H1266.35V894.969ZM1266.35 886.804H1274.51V894.969H1266.35V886.804ZM1258.18 1033.77H1266.35V1041.94H1258.18V1033.77Z" fill="black"/>
<path d="M1258.18 1025.61H1266.35V1033.77H1258.18V1025.61ZM1258.18 1017.44H1266.35V1025.61H1258.18V1017.44ZM1258.18 1009.28H1266.35V1017.44H1258.18V1009.28ZM1258.18 1001.11H1266.35V1009.28H1258.18V1001.11Z" fill="#FFB62D"/>
<path d="M1258.18 992.948H1266.35V1001.11H1258.18V992.948ZM1258.18 984.783H1266.35V992.948H1258.18V984.783ZM1258.18 976.618H1266.35V984.783H1258.18V976.618ZM1258.18 968.453H1266.35V976.618H1258.18V968.453ZM1258.18 960.288H1266.35V968.453H1258.18V960.288ZM1258.18 952.124H1266.35V960.288H1258.18V952.124ZM1258.18 943.958H1266.35V952.124H1258.18V943.958ZM1258.18 935.794H1266.35V943.958H1258.18V935.794ZM1258.18 927.629H1266.35V935.794H1258.18V927.629ZM1258.18 919.464H1266.35V927.629H1258.18V919.464Z" fill="#FECF48"/>
<path d="M1258.18 911.299H1266.35V919.464H1258.18V911.299Z" fill="#FFB62D"/>
<path d="M1258.18 903.134H1266.35V911.299H1258.18V903.134ZM1258.18 894.969H1266.35V903.134H1258.18V894.969Z" fill="#FFB62D"/>
<path d="M1258.18 886.804H1266.35V894.969H1258.18V886.804ZM1250.02 1033.77H1258.18V1041.94H1250.02V1033.77Z" fill="black"/>
<path d="M1250.02 1025.61H1258.18V1033.77H1250.02V1025.61ZM1250.02 1017.44H1258.18V1025.61H1250.02V1017.44ZM1250.02 1009.28H1258.18V1017.44H1250.02V1009.28Z" fill="#FFB62D"/>
<path d="M1250.02 1001.11H1258.18V1009.28H1250.02V1001.11ZM1250.02 992.948H1258.18V1001.11H1250.02V992.948ZM1250.02 984.783H1258.18V992.948H1250.02V984.783ZM1250.02 976.618H1258.18V984.783H1250.02V976.618ZM1250.02 968.453H1258.18V976.618H1250.02V968.453ZM1250.02 960.288H1258.18V968.453H1250.02V960.288ZM1250.02 952.124H1258.18V960.288H1250.02V952.124ZM1250.02 943.958H1258.18V952.124H1250.02V943.958ZM1250.02 935.794H1258.18V943.958H1250.02V935.794ZM1250.02 927.629H1258.18V935.794H1250.02V927.629Z" fill="#FECF48"/>
<path d="M1250.02 919.464H1258.18V927.629H1250.02V919.464ZM1250.02 911.299H1258.18V919.464H1250.02V911.299Z" fill="#FFB62D"/>
<path d="M1250.02 903.134H1258.18V911.299H1250.02V903.134Z" fill="#FFB62D"/>
<path d="M1250.02 894.969H1258.18V903.134H1250.02V894.969ZM1250.02 886.804H1258.18V894.969H1250.02V886.804ZM1241.86 1041.94H1250.02V1050.1H1241.86V1041.94ZM1241.86 1033.77H1250.02V1041.94H1241.86V1033.77Z" fill="black"/>
<path d="M1241.86 1025.61H1250.02V1033.77H1241.86V1025.61ZM1241.86 1017.44H1250.02V1025.61H1241.86V1017.44ZM1241.86 1009.28H1250.02V1017.44H1241.86V1009.28Z" fill="#FFB62D"/>
<path d="M1241.86 1001.11H1250.02V1009.28H1241.86V1001.11ZM1241.86 992.948H1250.02V1001.11H1241.86V992.948ZM1241.86 984.783H1250.02V992.948H1241.86V984.783ZM1241.86 976.618H1250.02V984.783H1241.86V976.618ZM1241.86 968.453H1250.02V976.618H1241.86V968.453ZM1241.86 960.288H1250.02V968.453H1241.86V960.288ZM1241.86 952.124H1250.02V960.288H1241.86V952.124ZM1241.86 943.958H1250.02V952.124H1241.86V943.958ZM1241.86 935.794H1250.02V943.958H1241.86V935.794Z" fill="#FECF48"/>
<path d="M1241.86 927.629H1250.02V935.794H1241.86V927.629ZM1241.86 919.464H1250.02V927.629H1241.86V919.464ZM1241.86 911.299H1250.02V919.464H1241.86V911.299Z" fill="#FFB62D"/>
<path d="M1241.85 903.134H1250.02V911.299H1241.85V903.134ZM1241.85 894.969H1250.02V903.134H1241.85V894.969ZM1233.69 1041.94H1241.85V1050.1H1233.69V1041.94Z" fill="black"/>
<path d="M1233.69 1033.77H1241.85V1041.94H1233.69V1033.77ZM1233.69 1025.61H1241.85V1033.77H1233.69V1025.61ZM1233.69 1017.44H1241.85V1025.61H1233.69V1017.44Z" fill="#FFB62D"/>
<path d="M1233.69 1009.28H1241.85V1017.44H1233.69V1009.28Z" fill="#FECF48"/>
<path d="M1233.69 1001.11H1241.85V1009.28H1233.69V1001.11Z" fill="white"/>
<path d="M1233.69 992.948H1241.85V1001.11H1233.69V992.948ZM1233.69 984.783H1241.85V992.948H1233.69V984.783ZM1233.69 976.618H1241.85V984.783H1233.69V976.618ZM1233.69 968.453H1241.85V976.618H1233.69V968.453ZM1233.69 960.288H1241.85V968.453H1233.69V960.288ZM1233.69 952.124H1241.85V960.288H1233.69V952.124ZM1233.69 943.958H1241.85V952.124H1233.69V943.958Z" fill="#FECF48"/>
<path d="M1233.69 935.794H1241.85V943.958H1233.69V935.794ZM1233.69 927.629H1241.85V935.794H1233.69V927.629Z" fill="#FFB62D"/>
<path d="M1233.69 919.464H1241.86V927.629H1233.69V919.464ZM1233.69 911.299H1241.86V919.464H1233.69V911.299ZM1225.53 1041.94H1233.69V1050.1H1225.53V1041.94Z" fill="black"/>
<path d="M1225.53 1033.77H1233.69V1041.94H1225.53V1033.77ZM1225.53 1025.61H1233.69V1033.77H1225.53V1025.61Z" fill="#FFB62D"/>
<path d="M1225.53 1017.44H1233.69V1025.61H1225.53V1017.44Z" fill="#FECF48"/>
<path d="M1225.53 1009.28H1233.69V1017.44H1225.53V1009.28Z" fill="white"/>
<path d="M1225.53 1001.11H1233.69V1009.28H1225.53V1001.11ZM1225.53 992.948H1233.69V1001.11H1225.53V992.948Z" fill="#FECF48"/>
<path d="M1225.53 984.783H1233.69V992.948H1225.53V984.783Z" fill="#FFB62D"/>
<path d="M1225.53 976.618H1233.69V984.783H1225.53V976.618ZM1225.53 968.453H1233.69V976.618H1225.53V968.453ZM1225.53 960.288H1233.69V968.453H1225.53V960.288ZM1225.53 952.124H1233.69V960.288H1225.53V952.124ZM1225.53 943.958H1233.69V952.124H1225.53V943.958Z" fill="#FECF48"/>
<path d="M1225.53 935.794H1233.69V943.958H1225.53V935.794Z" fill="#FFB62D"/>
<path d="M1225.52 927.629H1233.69V935.794H1225.52V927.629ZM1217.36 1050.1H1225.52V1058.27H1217.36V1050.1Z" fill="black"/>
<path d="M1217.36 1041.94H1225.52V1050.1H1217.36V1041.94ZM1217.36 1033.77H1225.52V1041.94H1217.36V1033.77Z" fill="#FFB62D"/>
<path d="M1217.36 1025.61H1225.52V1033.77H1217.36V1025.61Z" fill="#FECF48"/>
<path d="M1217.36 1017.44H1225.52V1025.61H1217.36V1017.44ZM1217.36 1009.28H1225.52V1017.44H1217.36V1009.28ZM1217.36 1001.11H1225.52V1009.28H1217.36V1001.11ZM1217.36 992.948H1225.52V1001.11H1217.36V992.948ZM1217.36 984.783H1225.52V992.948H1217.36V984.783ZM1217.36 976.618H1225.52V984.783H1217.36V976.618Z" fill="#FFB62D"/>
<path d="M1217.36 968.453H1225.52V976.618H1217.36V968.453ZM1217.36 960.288H1225.52V968.453H1217.36V960.288ZM1217.36 952.124H1225.52V960.288H1217.36V952.124Z" fill="#FECF48"/>
<path d="M1217.36 943.958H1225.52V952.124H1217.36V943.958ZM1217.36 935.794H1225.52V943.958H1217.36V935.794Z" fill="#FFB62D"/>
<path d="M1217.36 927.629H1225.53V935.794H1217.36V927.629ZM1209.2 1050.1H1217.36V1058.27H1209.2V1050.1ZM1209.2 1041.94H1217.36V1050.1H1209.2V1041.94Z" fill="black"/>
<path d="M1209.2 1033.77H1217.36V1041.94H1209.2V1033.77ZM1209.2 1025.61H1217.36V1033.77H1209.2V1025.61ZM1209.2 1017.44H1217.36V1025.61H1209.2V1017.44ZM1209.2 1009.28H1217.36V1017.44H1209.2V1009.28ZM1209.2 1001.11H1217.36V1009.28H1209.2V1001.11Z" fill="#FFB62D"/>
<path d="M1209.2 992.948H1217.36V1001.11H1209.2V992.948ZM1209.2 984.783H1217.36V992.948H1209.2V984.783Z" fill="black"/>
<path d="M1209.2 976.618H1217.36V984.783H1209.2V976.618ZM1209.2 968.453H1217.36V976.618H1209.2V968.453Z" fill="#FFB62D"/>
<path d="M1209.2 960.288H1217.36V968.453H1209.2V960.288Z" fill="#FECF48"/>
<path d="M1209.2 952.124H1217.36V960.288H1209.2V952.124ZM1209.2 943.958H1217.36V952.124H1209.2V943.958Z" fill="#FFB62D"/>
<path d="M1209.19 935.794H1217.36V943.958H1209.19V935.794ZM1201.03 1033.77H1209.19V1041.94H1201.03V1033.77Z" fill="black"/>
<path d="M1201.03 1025.61H1209.19V1033.77H1201.03V1025.61ZM1201.03 1017.44H1209.19V1025.61H1201.03V1017.44Z" fill="#FFB62D"/>
<path d="M1201.03 1009.28H1209.19V1017.44H1201.03V1009.28ZM1201.03 1001.11H1209.19V1009.28H1201.03V1001.11ZM1201.03 984.783H1209.19V992.948H1201.03V984.783ZM1201.03 976.618H1209.19V984.783H1201.03V976.618Z" fill="black"/>
<path d="M1201.03 968.453H1209.19V976.618H1201.03V968.453Z" fill="#FFB62D"/>
<path d="M1201.03 960.288H1209.19V968.453H1201.03V960.288Z" fill="#FECF48"/>
<path d="M1201.03 952.124H1209.19V960.288H1201.03V952.124ZM1201.03 943.958H1209.19V952.124H1201.03V943.958Z" fill="#FFB62D"/>
<path d="M1201.03 935.794H1209.19V943.958H1201.03V935.794ZM1192.87 1025.61H1201.03V1033.77H1192.87V1025.61ZM1192.87 1017.44H1201.03V1025.61H1192.87V1017.44ZM1192.87 976.618H1201.03V984.783H1192.87V976.618Z" fill="black"/>
<path d="M1192.87 968.453H1201.03V976.618H1192.87V968.453ZM1192.87 960.288H1201.03V968.453H1192.87V960.288ZM1192.87 952.124H1201.03V960.288H1192.87V952.124ZM1192.87 943.958H1201.03V952.124H1192.87V943.958Z" fill="#FFB62D"/>
<path d="M1192.86 935.794H1201.03V943.958H1192.86V935.794ZM1184.7 968.453H1192.86V976.618H1184.7V968.453ZM1184.7 960.288H1192.86V968.453H1184.7V960.288Z" fill="black"/>
<path d="M1184.7 952.124H1192.86V960.288H1184.7V952.124ZM1184.7 943.958H1192.86V952.124H1184.7V943.958Z" fill="#FFB62D"/>
<path d="M1184.7 935.794H1192.87V943.958H1184.7V935.794ZM1176.54 960.288H1184.7V968.453H1176.54V960.288ZM1176.54 952.124H1184.7V960.288H1176.54V952.124ZM1176.54 943.958H1184.7V952.124H1176.54V943.958Z" fill="black"/>
</g>
<g clip-path="url(#clip2_41_2)">
<path d="M1283.37 723.505H1297.5V737.631H1283.37V723.505ZM1339.87 568.128H1354V582.253H1339.87V568.128ZM1339.87 554.003H1354V568.128H1339.87V554.003ZM1339.87 539.877H1354V554.003H1339.87V539.877ZM1325.75 596.378H1339.87V610.504H1325.75V596.378ZM1325.75 582.253H1339.87V596.378H1325.75V582.253ZM1325.75 568.128H1339.87V582.253H1325.75V568.128Z" fill="black"/>
<path d="M1325.75 554.003H1339.87V568.128H1325.75V554.003Z" fill="#FFB62D"/>
<path d="M1325.75 539.877H1339.87V554.003H1325.75V539.877ZM1311.62 681.129H1325.75V695.255H1311.62V681.129ZM1311.62 667.004H1325.75V681.129H1311.62V667.004ZM1311.62 610.504H1325.75V624.628H1311.62V610.504ZM1311.62 596.378H1325.75V610.504H1311.62V596.378Z" fill="black"/>
<path d="M1311.62 582.253H1325.75V596.378H1311.62V582.253ZM1311.62 568.128H1325.75V582.253H1311.62V568.128ZM1311.62 554.003H1325.75V568.128H1311.62V554.003ZM1311.62 539.877H1325.75V554.003H1311.62V539.877Z" fill="#FFB62D"/>
<path d="M1311.62 525.752H1325.75V539.877H1311.62V525.752ZM1297.5 695.255H1311.62V709.38H1297.5V695.255Z" fill="black"/>
<path d="M1297.5 681.129H1311.62V695.255H1297.5V681.129ZM1297.5 667.004H1311.62V681.129H1297.5V667.004Z" fill="#FFB62D"/>
<path d="M1297.5 652.879H1311.62V667.004H1297.5V652.879ZM1297.5 624.628H1311.62V638.753H1297.5V624.628ZM1297.5 610.504H1311.62V624.628H1297.5V610.504Z" fill="black"/>
<path d="M1297.5 596.378H1311.62V610.504H1297.5V596.378ZM1297.5 582.253H1311.62V596.378H1297.5V582.253Z" fill="#FFB62D"/>
<path d="M1297.5 568.128H1311.62V582.253H1297.5V568.128Z" fill="#FECF48"/>
<path d="M1297.5 554.003H1311.62V568.128H1297.5V554.003ZM1297.5 539.877H1311.62V554.003H1297.5V539.877Z" fill="#FFB62D"/>
<path d="M1297.5 525.752H1311.62V539.877H1297.5V525.752ZM1283.37 709.38H1297.5V723.505H1283.37V709.38Z" fill="black"/>
<path d="M1283.37 695.255H1297.5V709.38H1283.37V695.255ZM1283.37 681.129H1297.5V695.255H1283.37V681.129ZM1283.37 667.004H1297.5V681.129H1283.37V667.004ZM1283.37 652.879H1297.5V667.004H1283.37V652.879Z" fill="#FFB62D"/>
<path d="M1283.37 638.753H1297.5V652.879H1283.37V638.753ZM1283.37 624.628H1297.5V638.753H1283.37V624.628Z" fill="black"/>
<path d="M1283.37 610.504H1297.5V624.628H1283.37V610.504ZM1283.37 596.378H1297.5V610.504H1283.37V596.378ZM1283.37 582.253H1297.5V596.378H1283.37V582.253Z" fill="#FFB62D"/>
<path d="M1283.37 568.128H1297.5V582.253H1283.37V568.128Z" fill="#FECF48"/>
<path d="M1283.37 554.003H1297.5V568.128H1283.37V554.003ZM1283.37 539.877H1297.5V554.003H1283.37V539.877Z" fill="#FFB62D"/>
<path d="M1283.37 525.752H1297.5V539.877H1283.37V525.752ZM1269.25 723.505H1283.37V737.631H1269.25V723.505Z" fill="black"/>
<path d="M1269.25 709.38H1283.37V723.505H1269.25V709.38ZM1269.25 695.255H1283.37V709.38H1269.25V695.255Z" fill="#FFB62D"/>
<path d="M1269.25 681.129H1283.37V695.255H1269.25V681.129Z" fill="#FECF48"/>
<path d="M1269.25 667.004H1283.37V681.129H1269.25V667.004ZM1269.25 652.879H1283.37V667.004H1269.25V652.879ZM1269.25 638.753H1283.37V652.879H1269.25V638.753ZM1269.25 624.628H1283.37V638.753H1269.25V624.628ZM1269.25 610.504H1283.37V624.628H1269.25V610.504ZM1269.25 596.378H1283.37V610.504H1269.25V596.378Z" fill="#FFB62D"/>
<path d="M1269.25 582.253H1283.37V596.378H1269.25V582.253ZM1269.25 568.128H1283.37V582.253H1269.25V568.128ZM1269.25 554.003H1283.37V568.128H1269.25V554.003Z" fill="#FECF48"/>
<path d="M1269.25 539.877H1283.37V554.003H1269.25V539.877ZM1269.25 525.752H1283.37V539.877H1269.25V525.752Z" fill="#FFB62D"/>
<path d="M1269.25 511.627H1283.37V525.752H1269.25V511.627ZM1255.12 723.505H1269.25V737.631H1255.12V723.505Z" fill="black"/>
<path d="M1255.12 709.38H1269.25V723.505H1255.12V709.38ZM1255.12 695.255H1269.25V709.38H1255.12V695.255ZM1255.12 681.129H1269.25V695.255H1255.12V681.129Z" fill="#FFB62D"/>
<path d="M1255.12 667.004H1269.25V681.129H1255.12V667.004ZM1255.12 652.879H1269.25V667.004H1255.12V652.879ZM1255.12 638.753H1269.25V652.879H1255.12V638.753ZM1255.12 624.628H1269.25V638.753H1255.12V624.628Z" fill="#FECF48"/>
<path d="M1255.12 610.504H1269.25V624.628H1255.12V610.504Z" fill="#FFB62D"/>
<path d="M1255.12 596.378H1269.25V610.504H1255.12V596.378ZM1255.12 582.253H1269.25V596.378H1255.12V582.253ZM1255.12 568.128H1269.25V582.253H1255.12V568.128ZM1255.12 554.003H1269.25V568.128H1255.12V554.003Z" fill="#FECF48"/>
<path d="M1255.12 539.877H1269.25V554.003H1255.12V539.877ZM1255.12 525.752H1269.25V539.877H1255.12V525.752Z" fill="#FFB62D"/>
<path d="M1255.12 511.627H1269.25V525.752H1255.12V511.627ZM1241 709.38H1255.12V723.505H1241V709.38Z" fill="black"/>
<path d="M1241 695.255H1255.12V709.38H1241V695.255ZM1241 681.129H1255.12V695.255H1241V681.129ZM1241 667.004H1255.12V681.129H1241V667.004Z" fill="#FFB62D"/>
<path d="M1241 652.879H1255.12V667.004H1241V652.879ZM1241 638.753H1255.12V652.879H1241V638.753ZM1241 624.628H1255.12V638.753H1241V624.628ZM1241 610.504H1255.12V624.628H1241V610.504ZM1241 596.378H1255.12V610.504H1241V596.378ZM1241 582.253H1255.12V596.378H1241V582.253ZM1241 568.128H1255.12V582.253H1241V568.128ZM1241 554.003H1255.12V568.128H1241V554.003ZM1241 539.877H1255.12V554.003H1241V539.877Z" fill="#FECF48"/>
<path d="M1241 525.752H1255.12V539.877H1241V525.752ZM1241 511.627H1255.12V525.752H1241V511.627Z" fill="#FFB62D"/>
<path d="M1241 497.501H1255.12V511.627H1241V497.501ZM1241 483.376H1255.12V497.501H1241V483.376ZM1226.87 709.38H1241V723.505H1226.87V709.38Z" fill="black"/>
<path d="M1226.87 695.255H1241V709.38H1226.87V695.255ZM1226.87 681.129H1241V695.255H1226.87V681.129ZM1226.87 667.004H1241V681.129H1226.87V667.004Z" fill="#FFB62D"/>
<path d="M1226.87 652.879H1241V667.004H1226.87V652.879ZM1226.87 638.753H1241V652.879H1226.87V638.753ZM1226.87 624.628H1241V638.753H1226.87V624.628ZM1226.87 610.504H1241V624.628H1226.87V610.504ZM1226.87 596.378H1241V610.504H1226.87V596.378ZM1226.87 582.253H1241V596.378H1226.87V582.253ZM1226.87 568.128H1241V582.253H1226.87V568.128Z" fill="#FECF48"/>
<path d="M1226.87 554.003H1241V568.128H1226.87V554.003Z" fill="white"/>
<path d="M1226.87 539.877H1241V554.003H1226.87V539.877ZM1226.87 525.752H1241V539.877H1226.87V525.752Z" fill="#FECF48"/>
<path d="M1226.87 511.627H1241V525.752H1226.87V511.627ZM1226.87 497.501H1241V511.627H1226.87V497.501ZM1226.87 483.376H1241V497.501H1226.87V483.376Z" fill="#FFB62D"/>
<path d="M1226.87 469.251H1241V483.376H1226.87V469.251ZM1226.87 455.125H1241V469.251H1226.87V455.125ZM1212.75 709.38H1226.87V723.505H1212.75V709.38ZM1212.75 695.255H1226.87V709.38H1212.75V695.255Z" fill="black"/>
<path d="M1212.75 681.129H1226.87V695.255H1212.75V681.129ZM1212.75 667.004H1226.87V681.129H1212.75V667.004ZM1212.75 652.879H1226.87V667.004H1212.75V652.879Z" fill="#FFB62D"/>
<path d="M1212.75 638.753H1226.87V652.879H1212.75V638.753ZM1212.75 624.628H1226.87V638.753H1212.75V624.628ZM1212.75 610.504H1226.87V624.628H1212.75V610.504ZM1212.75 596.378H1226.87V610.504H1212.75V596.378ZM1212.75 582.253H1226.87V596.378H1212.75V582.253ZM1212.75 568.128H1226.87V582.253H1212.75V568.128ZM1212.75 554.003H1226.87V568.128H1212.75V554.003Z" fill="#FECF48"/>
<path d="M1212.75 539.877H1226.87V554.003H1212.75V539.877Z" fill="white"/>
<path d="M1212.75 525.752H1226.87V539.877H1212.75V525.752ZM1212.75 511.627H1226.87V525.752H1212.75V511.627Z" fill="#FECF48"/>
<path d="M1212.75 497.501H1226.87V511.627H1212.75V497.501ZM1212.75 483.376H1226.87V497.501H1212.75V483.376Z" fill="#FFB62D"/>
<path d="M1212.75 469.251H1226.87V483.376H1212.75V469.251Z" fill="#FFB62D"/>
<path d="M1212.75 455.125H1226.87V469.251H1212.75V455.125ZM1212.75 441H1226.87V455.125H1212.75V441ZM1198.62 695.255H1212.75V709.38H1198.62V695.255Z" fill="black"/>
<path d="M1198.62 681.129H1212.75V695.255H1198.62V681.129ZM1198.62 667.004H1212.75V681.129H1198.62V667.004ZM1198.62 652.879H1212.75V667.004H1198.62V652.879ZM1198.62 638.753H1212.75V652.879H1198.62V638.753Z" fill="#FFB62D"/>
<path d="M1198.62 624.628H1212.75V638.753H1198.62V624.628ZM1198.62 610.504H1212.75V624.628H1198.62V610.504ZM1198.62 596.378H1212.75V610.504H1198.62V596.378ZM1198.62 582.253H1212.75V596.378H1198.62V582.253ZM1198.62 568.128H1212.75V582.253H1198.62V568.128ZM1198.62 554.003H1212.75V568.128H1198.62V554.003ZM1198.62 539.877H1212.75V554.003H1198.62V539.877ZM1198.62 525.752H1212.75V539.877H1198.62V525.752ZM1198.62 511.627H1212.75V525.752H1198.62V511.627ZM1198.62 497.501H1212.75V511.627H1198.62V497.501Z" fill="#FECF48"/>
<path d="M1198.62 483.376H1212.75V497.501H1198.62V483.376Z" fill="#FFB62D"/>
<path d="M1198.62 469.251H1212.75V483.376H1198.62V469.251ZM1198.62 455.125H1212.75V469.251H1198.62V455.125Z" fill="#FFB62D"/>
<path d="M1198.62 441H1212.75V455.125H1198.62V441ZM1184.5 695.255H1198.62V709.38H1184.5V695.255Z" fill="black"/>
<path d="M1184.5 681.129H1198.62V695.255H1184.5V681.129ZM1184.5 667.004H1198.62V681.129H1184.5V667.004ZM1184.5 652.879H1198.62V667.004H1184.5V652.879Z" fill="#FFB62D"/>
<path d="M1184.5 638.753H1198.62V652.879H1184.5V638.753ZM1184.5 624.628H1198.62V638.753H1184.5V624.628ZM1184.5 610.504H1198.62V624.628H1184.5V610.504ZM1184.5 596.378H1198.62V610.504H1184.5V596.378ZM1184.5 582.253H1198.62V596.378H1184.5V582.253ZM1184.5 568.128H1198.62V582.253H1184.5V568.128ZM1184.5 554.003H1198.62V568.128H1184.5V554.003ZM1184.5 539.877H1198.62V554.003H1184.5V539.877ZM1184.5 525.752H1198.62V539.877H1184.5V525.752ZM1184.5 511.627H1198.62V525.752H1184.5V511.627Z" fill="#FECF48"/>
<path d="M1184.5 497.501H1198.62V511.627H1184.5V497.501ZM1184.5 483.376H1198.62V497.501H1184.5V483.376Z" fill="#FFB62D"/>
<path d="M1184.5 469.251H1198.62V483.376H1184.5V469.251Z" fill="#FFB62D"/>
<path d="M1184.5 455.125H1198.62V469.251H1184.5V455.125ZM1184.5 441H1198.62V455.125H1184.5V441ZM1170.37 709.38H1184.5V723.505H1170.37V709.38ZM1170.37 695.255H1184.5V709.38H1170.37V695.255Z" fill="black"/>
<path d="M1170.37 681.129H1184.5V695.255H1170.37V681.129ZM1170.37 667.004H1184.5V681.129H1170.37V667.004ZM1170.37 652.879H1184.5V667.004H1170.37V652.879Z" fill="#FFB62D"/>
<path d="M1170.37 638.753H1184.5V652.879H1170.37V638.753ZM1170.37 624.628H1184.5V638.753H1170.37V624.628ZM1170.37 610.504H1184.5V624.628H1170.37V610.504ZM1170.37 596.378H1184.5V610.504H1170.37V596.378ZM1170.37 582.253H1184.5V596.378H1170.37V582.253ZM1170.37 568.128H1184.5V582.253H1170.37V568.128ZM1170.37 554.003H1184.5V568.128H1170.37V554.003ZM1170.37 539.877H1184.5V554.003H1170.37V539.877ZM1170.37 525.752H1184.5V539.877H1170.37V525.752Z" fill="#FECF48"/>
<path d="M1170.37 511.627H1184.5V525.752H1170.37V511.627ZM1170.37 497.501H1184.5V511.627H1170.37V497.501ZM1170.37 483.376H1184.5V497.501H1170.37V483.376Z" fill="#FFB62D"/>
<path d="M1170.37 469.251H1184.5V483.376H1170.37V469.251ZM1170.37 455.125H1184.5V469.251H1170.37V455.125ZM1156.25 709.38H1170.37V723.505H1156.25V709.38Z" fill="black"/>
<path d="M1156.25 695.255H1170.37V709.38H1156.25V695.255ZM1156.25 681.129H1170.37V695.255H1156.25V681.129ZM1156.25 667.004H1170.37V681.129H1156.25V667.004Z" fill="#FFB62D"/>
<path d="M1156.25 652.879H1170.37V667.004H1156.25V652.879Z" fill="#FECF48"/>
<path d="M1156.25 638.753H1170.37V652.879H1156.25V638.753Z" fill="white"/>
<path d="M1156.25 624.628H1170.37V638.753H1156.25V624.628ZM1156.25 610.504H1170.37V624.628H1156.25V610.504ZM1156.25 596.378H1170.37V610.504H1156.25V596.378ZM1156.25 582.253H1170.37V596.378H1156.25V582.253ZM1156.25 568.128H1170.37V582.253H1156.25V568.128ZM1156.25 554.003H1170.37V568.128H1156.25V554.003ZM1156.25 539.877H1170.37V554.003H1156.25V539.877Z" fill="#FECF48"/>
<path d="M1156.25 525.752H1170.37V539.877H1156.25V525.752ZM1156.25 511.627H1170.37V525.752H1156.25V511.627Z" fill="#FFB62D"/>
<path d="M1156.25 497.501H1170.37V511.627H1156.25V497.501ZM1156.25 483.376H1170.37V497.501H1156.25V483.376ZM1142.12 709.38H1156.25V723.505H1142.12V709.38Z" fill="black"/>
<path d="M1142.12 695.255H1156.25V709.38H1142.12V695.255ZM1142.12 681.129H1156.25V695.255H1142.12V681.129Z" fill="#FFB62D"/>
<path d="M1142.12 667.004H1156.25V681.129H1142.12V667.004Z" fill="#FECF48"/>
<path d="M1142.12 652.879H1156.25V667.004H1142.12V652.879Z" fill="white"/>
<path d="M1142.12 638.753H1156.25V652.879H1142.12V638.753ZM1142.12 624.628H1156.25V638.753H1142.12V624.628Z" fill="#FECF48"/>
<path d="M1142.12 610.504H1156.25V624.628H1142.12V610.504Z" fill="#FFB62D"/>
<path d="M1142.12 596.378H1156.25V610.504H1142.12V596.378ZM1142.12 582.253H1156.25V596.378H1142.12V582.253ZM1142.12 568.128H1156.25V582.253H1142.12V568.128ZM1142.12 554.003H1156.25V568.128H1142.12V554.003ZM1142.12 539.877H1156.25V554.003H1142.12V539.877Z" fill="#FECF48"/>
<path d="M1142.12 525.752H1156.25V539.877H1142.12V525.752Z" fill="#FFB62D"/>
<path d="M1142.12 511.627H1156.25V525.752H1142.12V511.627ZM1128 723.505H1142.12V737.631H1128V723.505Z" fill="black"/>
<path d="M1128 709.38H1142.12V723.505H1128V709.38ZM1128 695.255H1142.12V709.38H1128V695.255Z" fill="#FFB62D"/>
<path d="M1128 681.129H1142.12V695.255H1128V681.129Z" fill="#FECF48"/>
<path d="M1128 667.004H1142.12V681.129H1128V667.004ZM1128 652.879H1142.12V667.004H1128V652.879ZM1128 638.753H1142.12V652.879H1128V638.753ZM1128 624.628H1142.12V638.753H1128V624.628ZM1128 610.504H1142.12V624.628H1128V610.504ZM1128 596.378H1142.12V610.504H1128V596.378Z" fill="#FFB62D"/>
<path d="M1128 582.253H1142.12V596.378H1128V582.253ZM1128 568.128H1142.12V582.253H1128V568.128ZM1128 554.003H1142.12V568.128H1128V554.003Z" fill="#FECF48"/>
<path d="M1128 539.877H1142.12V554.003H1128V539.877ZM1128 525.752H1142.12V539.877H1128V525.752Z" fill="#FFB62D"/>
<path d="M1128 511.627H1142.12V525.752H1128V511.627ZM1113.87 723.505H1128V737.631H1113.87V723.505ZM1113.87 709.38H1128V723.505H1113.87V709.38Z" fill="black"/>
<path d="M1113.87 695.255H1128V709.38H1113.87V695.255ZM1113.87 681.129H1128V695.255H1113.87V681.129ZM1113.87 667.004H1128V681.129H1113.87V667.004ZM1113.87 652.879H1128V667.004H1113.87V652.879ZM1113.87 638.753H1128V652.879H1113.87V638.753Z" fill="#FFB62D"/>
<path d="M1113.87 624.628H1128V638.753H1113.87V624.628ZM1113.87 610.504H1128V624.628H1113.87V610.504Z" fill="black"/>
<path d="M1113.87 596.378H1128V610.504H1113.87V596.378ZM1113.87 582.253H1128V596.378H1113.87V582.253Z" fill="#FFB62D"/>
<path d="M1113.87 568.128H1128V582.253H1113.87V568.128Z" fill="#FECF48"/>
<path d="M1113.87 554.003H1128V568.128H1113.87V554.003ZM1113.87 539.877H1128V554.003H1113.87V539.877Z" fill="#FFB62D"/>
<path d="M1113.87 525.752H1128V539.877H1113.87V525.752ZM1099.74 695.255H1113.87V709.38H1099.74V695.255Z" fill="black"/>
<path d="M1099.74 681.129H1113.87V695.255H1099.74V681.129ZM1099.74 667.004H1113.87V681.129H1099.74V667.004Z" fill="#FFB62D"/>
<path d="M1099.74 652.879H1113.87V667.004H1099.74V652.879ZM1099.74 638.753H1113.87V652.879H1099.74V638.753ZM1099.74 610.504H1113.87V624.628H1099.74V610.504ZM1099.74 596.378H1113.87V610.504H1099.74V596.378Z" fill="black"/>
<path d="M1099.74 582.253H1113.87V596.378H1099.74V582.253Z" fill="#FFB62D"/>
<path d="M1099.74 568.128H1113.87V582.253H1099.74V568.128Z" fill="#FECF48"/>
<path d="M1099.74 554.003H1113.87V568.128H1099.74V554.003ZM1099.74 539.877H1113.87V554.003H1099.74V539.877Z" fill="#FFB62D"/>
<path d="M1099.74 525.752H1113.87V539.877H1099.74V525.752ZM1085.62 681.129H1099.74V695.255H1085.62V681.129ZM1085.62 667.004H1099.74V681.129H1085.62V667.004ZM1085.62 596.378H1099.74V610.504H1085.62V596.378Z" fill="black"/>
<path d="M1085.62 582.253H1099.74V596.378H1085.62V582.253ZM1085.62 568.128H1099.74V582.253H1085.62V568.128ZM1085.62 554.003H1099.74V568.128H1085.62V554.003ZM1085.62 539.877H1099.74V554.003H1085.62V539.877Z" fill="#FFB62D"/>
<path d="M1085.62 525.752H1099.75V539.877H1085.62V525.752ZM1071.49 582.253H1085.62V596.378H1071.49V582.253ZM1071.49 568.128H1085.62V582.253H1071.49V568.128Z" fill="black"/>
<path d="M1071.49 554.003H1085.62V568.128H1071.49V554.003ZM1071.49 539.877H1085.62V554.003H1071.49V539.877Z" fill="#FFB62D"/>
<path d="M1071.49 525.752H1085.62V539.877H1071.49V525.752ZM1057.37 568.128H1071.49V582.253H1057.37V568.128ZM1057.37 554.003H1071.49V568.128H1057.37V554.003ZM1057.37 539.877H1071.49V554.003H1057.37V539.877Z" fill="black"/>
</g>
<defs>
<clipPath id="clip0_41_2">
<rect width="547.825" height="547.825" fill="white" transform="translate(645 489.867)"/>
</clipPath>
<clipPath id="clip1_41_2">
<rect width="171.463" height="171.463" fill="white" transform="translate(1176.54 886.804)"/>
</clipPath>
<clipPath id="clip2_41_2">
<rect width="296.631" height="296.631" fill="white" transform="translate(1057.37 441)"/>
</clipPath>
</defs>
</svg>
